<?xml version="1.0" encoding="UTF-8" standalone="no"?>
<svg width="1900px" height="1109px" viewBox="0 0 1900 1109" version="1.1" xmlns="http://www.w3.org/2000/svg" xmlns:xlink="http://www.w3.org/1999/xlink" xmlns:sketch="http://www.bohemiancoding.com/sketch/ns">
    <!-- Generator: Sketch Beta 3.3 (11920) - http://www.bohemiancoding.com/sketch -->
    <title>star</title>
    <desc>Created with Sketch Beta.</desc>
    <defs></defs>
    <g id="Page-1" stroke="none" stroke-width="1" fill="none" fill-rule="evenodd" sketch:type="MSPage">
        <g id="star" sketch:type="MSLayerGroup">
            <path d="M226.907482,308.846296 C230.388525,308.846296 233.210468,306.024353 233.210468,302.54331 C233.210468,299.062267 230.388525,296.240324 226.907482,296.240324 C223.42644,296.240324 220.604497,299.062267 220.604497,302.54331 C220.604497,306.024353 223.42644,308.846296 226.907482,308.846296 Z" id="Oval-10" fill="#D8D8D8" sketch:type="MSShapeGroup"></path>
            <ellipse id="Oval-10-Copy" fill="#D8D8D8" sketch:type="MSShapeGroup" cx="346.664209" cy="215.001843" rx="6.30298562" ry="6.30298562"></ellipse>
            <ellipse id="Oval-10-Copy-2" fill="#D8D8D8" sketch:type="MSShapeGroup" cx="458.016955" cy="500.737191" rx="6.30298562" ry="6.30298562"></ellipse>
            <ellipse id="Oval-10-Copy-3" fill="#D8D8D8" sketch:type="MSShapeGroup" cx="766.162919" cy="202.395872" rx="6.30298562" ry="6.30298562"></ellipse>
            <ellipse id="Oval-10-Copy-14" fill="#D8D8D8" sketch:type="MSShapeGroup" cx="695.429414" cy="314.44895" rx="6.30298562" ry="6.30298562"></ellipse>
            <ellipse id="Oval-10-Copy-15" fill="#D8D8D8" sketch:type="MSShapeGroup" cx="1046.29561" cy="103.649097" rx="6.30298562" ry="6.30298562"></ellipse>
            <ellipse id="Oval-10-Copy-4" fill="#D8D8D8" sketch:type="MSShapeGroup" cx="446.111316" cy="815.186141" rx="6.30298562" ry="6.30298562"></ellipse>
            <ellipse id="Oval-10-Copy-5" fill="#D8D8D8" sketch:type="MSShapeGroup" cx="46.9222263" cy="623.295245" rx="6.30298562" ry="6.30298562"></ellipse>
            <ellipse id="Oval-10-Copy-6" fill="#D8D8D8" sketch:type="MSShapeGroup" cx="202.395872" cy="977.663104" rx="6.30298562" ry="6.30298562"></ellipse>
            <ellipse id="Oval-10-Copy-7" fill="#D8D8D8" sketch:type="MSShapeGroup" cx="741.651309" cy="687.025433" rx="6.30298562" ry="6.30298562"></ellipse>
            <ellipse id="Oval-34" fill="#FFFFFF" sketch:type="MSShapeGroup" cx="245.466273" cy="451.363804" rx="12.2558054" ry="12.2558054"></ellipse>
            <ellipse id="Oval-34-Copy" fill="#FFFFFF" sketch:type="MSShapeGroup" cx="622.244748" cy="639.052709" rx="12.2558054" ry="12.2558054"></ellipse>
            <ellipse id="Oval-34-Copy-2" fill="#FFFFFF" sketch:type="MSShapeGroup" cx="1211.22374" cy="254.570586" rx="12.2558054" ry="12.2558054"></ellipse>
            <ellipse id="Oval-34-Copy-3" fill="#FFFFFF" sketch:type="MSShapeGroup" cx="37.4677479" cy="44.4710652" rx="12.2558054" ry="12.2558054"></ellipse>
            <ellipse id="Oval-34-Copy-4" fill="#FFFFFF" sketch:type="MSShapeGroup" cx="1387.70734" cy="838.647254" rx="12.2558054" ry="12.2558054"></ellipse>
            <ellipse id="Oval-34-Copy-5" fill="#FFFFFF" sketch:type="MSShapeGroup" cx="1448.6362" cy="1058.55142" rx="12.2558054" ry="12.2558054"></ellipse>
            <ellipse id="Oval-34-Copy-6" fill="#FFFFFF" sketch:type="MSShapeGroup" cx="12.2558054" cy="959.804644" rx="12.2558054" ry="12.2558054"></ellipse>
            <ellipse id="Oval-34-Copy-7" fill="#FFFFFF" sketch:type="MSShapeGroup" cx="1536.87799" cy="446.461482" rx="12.2558054" ry="12.2558054"></ellipse>
            <ellipse id="Oval-10-Copy-8" fill="#D8D8D8" sketch:type="MSShapeGroup" cx="953.151493" cy="259.823074" rx="6.30298562" ry="6.30298562"></ellipse>
            <ellipse id="Oval-10-Copy-9" fill="#D8D8D8" sketch:type="MSShapeGroup" cx="551.161076" cy="62.3295245" rx="6.30298562" ry="6.30298562"></ellipse>
            <ellipse id="Oval-10-Copy-10" fill="#D8D8D8" sketch:type="MSShapeGroup" cx="1347.43826" cy="656.911168" rx="6.30298562" ry="6.30298562"></ellipse>
            <ellipse id="Oval-10-Copy-11" fill="#D8D8D8" sketch:type="MSShapeGroup" cx="1332.03096" cy="289.937339" rx="6.30298562" ry="6.30298562"></ellipse>
            <ellipse id="Oval-10-Copy-12" fill="#D8D8D8" sketch:type="MSShapeGroup" cx="1117.02912" cy="694.729082" rx="6.30298562" ry="6.30298562"></ellipse>
            <ellipse id="Oval-10-Copy-13" fill="#D8D8D8" sketch:type="MSShapeGroup" cx="1197.56727" cy="98.0464431" rx="6.30298562" ry="6.30298562"></ellipse>
            <ellipse id="Oval-10-Copy-16" fill="#D8D8D8" sketch:type="MSShapeGroup" cx="1657.68522" cy="112.75341" rx="6.30298562" ry="6.30298562"></ellipse>
            <ellipse id="Oval-10-Copy-17" fill="#D8D8D8" sketch:type="MSShapeGroup" cx="1475.59897" cy="6.30298562" rx="6.30298562" ry="6.30298562"></ellipse>
            <ellipse id="Oval-10-Copy-18" fill="#D8D8D8" sketch:type="MSShapeGroup" cx="1834.86915" cy="376.078142" rx="6.30298562" ry="6.30298562"></ellipse>
            <ellipse id="Oval-10-Copy-19" fill="#D8D8D8" sketch:type="MSShapeGroup" cx="1663.28787" cy="307.445632" rx="6.30298562" ry="6.30298562"></ellipse>
            <ellipse id="Oval-10-Copy-20" fill="#D8D8D8" sketch:type="MSShapeGroup" cx="1650.6819" cy="593.18098" rx="6.30298562" ry="6.30298562"></ellipse>
            <ellipse id="Oval-10-Copy-21" fill="#D8D8D8" sketch:type="MSShapeGroup" cx="1827.86583" cy="889.421305" rx="6.30298562" ry="6.30298562"></ellipse>
            <ellipse id="Oval-10-Copy-22" fill="#D8D8D8" sketch:type="MSShapeGroup" cx="1559.63878" cy="947.548839" rx="6.30298562" ry="6.30298562"></ellipse>
            <ellipse id="Oval-10-Copy-23" fill="#D8D8D8" sketch:type="MSShapeGroup" cx="1893.69701" cy="1102.32215" rx="6.30298562" ry="6.30298562"></ellipse>
        </g>
    </g>
</svg>